<svg width="32" height="32" viewBox="0 0 32 32" fill="none" xmlns="http://www.w3.org/2000/svg">
<path d="M22.6667 20.3333C22.5353 20.3339 22.4051 20.3083 22.2837 20.2579C22.1624 20.2076 22.0523 20.1335 21.96 20.04L16 14.08L10.04 20C9.85206 20.1218 9.62865 20.1771 9.40557 20.1568C9.1825 20.1366 8.97269 20.042 8.80976 19.8883C8.64683 19.7346 8.54023 19.5306 8.50703 19.3091C8.47383 19.0876 8.51596 18.8614 8.62667 18.6666L15.2933 12C15.4808 11.8127 15.735 11.7075 16 11.7075C16.265 11.7075 16.5192 11.8127 16.7067 12L23.3733 18.6666C23.5606 18.8541 23.6658 19.1083 23.6658 19.3733C23.6658 19.6383 23.5606 19.8925 23.3733 20.08C23.1804 20.2542 22.9264 20.3453 22.6667 20.3333Z" fill="#F5F5F5"/>
</svg>
