<svg width="32" height="32" viewBox="0 0 32 32" fill="none" xmlns="http://www.w3.org/2000/svg">
<path d="M9.50133 10.4031C9.40109 10.3591 9.29316 10.3353 9.18372 10.333C9.07427 10.3307 8.96544 10.35 8.86345 10.3898C8.76146 10.4296 8.66831 10.4891 8.5893 10.5648C8.5103 10.6406 8.44699 10.7312 8.403 10.8314C8.359 10.9317 8.33519 11.0396 8.3329 11.1491C8.33062 11.2585 8.34992 11.3673 8.38969 11.4693C8.47002 11.6753 8.62888 11.8409 8.83133 11.9298L15.1667 14.7104V20.8331C15.1667 21.0541 15.2545 21.2661 15.4107 21.4224C15.567 21.5786 15.779 21.6664 16 21.6664C16.221 21.6664 16.433 21.5786 16.5893 21.4224C16.7455 21.2661 16.8333 21.0541 16.8333 20.8331V14.7104L23.168 11.9298C23.2682 11.8858 23.3588 11.8225 23.4346 11.7435C23.5104 11.6645 23.5699 11.5713 23.6096 11.4693C23.6494 11.3673 23.6687 11.2585 23.6664 11.1491C23.6641 11.0396 23.6403 10.9317 23.5963 10.8314C23.5523 10.7312 23.489 10.6406 23.41 10.5648C23.331 10.4891 23.2379 10.4296 23.1359 10.3898C23.0339 10.35 22.9251 10.3307 22.8156 10.333C22.7062 10.3353 22.5982 10.3591 22.498 10.4031L16 13.2564L9.50133 10.4031ZM17.548 3.55444C16.5545 3.15698 15.4462 3.15698 14.4527 3.55444L4.448 7.55644C3.92218 7.76671 3.47144 8.12971 3.15392 8.59861C2.83641 9.06752 2.66669 9.62082 2.66666 10.1871V21.8131C2.66669 22.3794 2.83641 22.9327 3.15392 23.4016C3.47144 23.8705 3.92218 24.2335 4.448 24.4438L14.4527 28.4458C15.446 28.8431 16.554 28.8431 17.5473 28.4458L27.552 24.4438C28.0778 24.2335 28.5286 23.8705 28.8461 23.4016C29.1636 22.9327 29.3333 22.3794 29.3333 21.8131V10.1871C29.3333 9.62082 29.1636 9.06752 28.8461 8.59861C28.5286 8.12971 28.0778 7.76671 27.552 7.55644L17.548 3.55444ZM15.0713 5.10178C15.6675 4.86326 16.3325 4.86326 16.9287 5.10178L26.9333 9.10444C27.1497 9.19101 27.3352 9.34041 27.4659 9.53338C27.5966 9.72635 27.6666 9.95404 27.6667 10.1871V21.8131C27.6667 22.0463 27.5968 22.2741 27.4661 22.4672C27.3354 22.6603 27.1498 22.8098 26.9333 22.8964L16.9287 26.8984C16.3325 27.137 15.6675 27.137 15.0713 26.8984L5.06666 22.8958C4.85016 22.8092 4.66458 22.6597 4.53387 22.4666C4.40316 22.2735 4.33331 22.0456 4.33333 21.8124V10.1871C4.33344 9.95404 4.40335 9.72635 4.53406 9.53338C4.66476 9.34041 4.85027 9.19101 5.06666 9.10444L15.0713 5.10178Z" fill="#F5F5F5"/>
</svg>
