<svg width="32" height="32" viewBox="0 0 32 32" fill="none" xmlns="http://www.w3.org/2000/svg">
<path fill-rule="evenodd" clip-rule="evenodd" d="M14.5933 1.6665H17.4067C19.2293 1.6665 20.7 1.6665 21.856 1.8225C23.056 1.9825 24.0667 2.32917 24.8693 3.1305C25.2667 3.52917 25.552 3.9785 25.7587 4.47717C27.0013 4.63184 28.0453 4.97317 28.8693 5.79717C29.672 6.59984 30.016 7.6105 30.1787 8.8105C30.3333 9.9665 30.3333 11.4372 30.3333 13.2598V18.7398C30.3333 20.5625 30.3333 22.0332 30.1787 23.1892C30.016 24.3892 29.672 25.3998 28.8693 26.2025C28.0453 27.0265 27.0027 27.3678 25.7587 27.5238C25.552 28.0212 25.2667 28.4705 24.8693 28.8692C24.0667 29.6718 23.056 30.0158 21.856 30.1785C20.7 30.3332 19.2293 30.3332 17.4067 30.3332H14.5933C12.7707 30.3332 11.3 30.3332 10.144 30.1785C8.944 30.0158 7.93333 29.6718 7.13066 28.8692C6.74755 28.4845 6.44518 28.0271 6.24133 27.5238C4.99866 27.3678 3.95466 27.0265 3.13066 26.2025C2.328 25.3998 1.984 24.3892 1.82266 23.1892C1.66666 22.0332 1.66666 20.5625 1.66666 18.7398V13.2598C1.66666 11.4372 1.66666 9.9665 1.82266 8.8105C1.98266 7.6105 2.32933 6.59984 3.13066 5.79717C3.95466 4.97317 4.99733 4.63184 6.24133 4.47717C6.44547 3.97371 6.74779 3.51593 7.13066 3.1305C7.93333 2.32784 8.944 1.98384 10.144 1.8225C11.3 1.6665 12.7707 1.6665 14.5933 1.6665ZM5.77066 6.5865C5.188 6.72784 4.824 6.93317 4.54533 7.21317C4.176 7.58117 3.936 8.0985 3.804 9.07717C3.66933 10.0852 3.66666 11.4198 3.66666 13.3332V18.6665C3.66666 20.5798 3.66933 21.9158 3.804 22.9225C3.936 23.9012 4.17733 24.4185 4.54533 24.7878C4.824 25.0665 5.188 25.2718 5.772 25.4132C5.66666 24.3305 5.66666 23.0052 5.66666 21.4065V10.5932C5.66666 8.99584 5.66666 7.66917 5.77066 6.5865ZM26.2293 25.4132C26.812 25.2718 27.176 25.0665 27.4547 24.7878C27.824 24.4185 28.064 23.9012 28.196 22.9212C28.3307 21.9158 28.3333 20.5812 28.3333 18.6678V13.3345C28.3333 11.4198 28.3307 10.0852 28.196 9.07717C28.064 8.0985 27.8227 7.58117 27.4547 7.21184C27.176 6.93317 26.812 6.72784 26.228 6.5865C26.3333 7.66917 26.3333 8.99584 26.3333 10.5932V21.4065C26.3333 23.0038 26.3333 24.3305 26.2293 25.4132ZM10.4107 3.80384C9.432 3.93584 8.91466 4.17717 8.54533 4.54517C8.176 4.9145 7.936 5.43184 7.804 6.41184C7.66933 7.41584 7.66666 8.75184 7.66666 10.6665V21.3332C7.66666 23.2465 7.66933 24.5812 7.804 25.5892C7.936 26.5678 8.17733 27.0852 8.54533 27.4545C8.91466 27.8238 9.432 28.0638 10.412 28.1958C11.4173 28.3305 12.7533 28.3332 14.6667 28.3332H17.3333C19.2467 28.3332 20.5827 28.3305 21.5893 28.1958C22.568 28.0638 23.0853 27.8225 23.4547 27.4545C23.824 27.0852 24.064 26.5678 24.196 25.5878C24.3307 24.5812 24.3333 23.2465 24.3333 21.3332V10.6665C24.3333 8.75317 24.3307 7.41717 24.196 6.4105C24.064 5.43184 23.8227 4.9145 23.4547 4.54517C23.0853 4.17584 22.568 3.93584 21.588 3.80384C20.5827 3.66917 19.2467 3.6665 17.3333 3.6665H14.6667C12.7533 3.6665 11.4173 3.66917 10.4107 3.80384ZM11 11.9998C11 11.7346 11.1054 11.4803 11.2929 11.2927C11.4804 11.1052 11.7348 10.9998 12 10.9998H20C20.2652 10.9998 20.5196 11.1052 20.7071 11.2927C20.8946 11.4803 21 11.7346 21 11.9998C21 12.2651 20.8946 12.5194 20.7071 12.7069C20.5196 12.8945 20.2652 12.9998 20 12.9998H12C11.7348 12.9998 11.4804 12.8945 11.2929 12.7069C11.1054 12.5194 11 12.2651 11 11.9998ZM11 17.3332C11 17.068 11.1054 16.8136 11.2929 16.6261C11.4804 16.4385 11.7348 16.3332 12 16.3332H20C20.2652 16.3332 20.5196 16.4385 20.7071 16.6261C20.8946 16.8136 21 17.068 21 17.3332C21 17.5984 20.8946 17.8527 20.7071 18.0403C20.5196 18.2278 20.2652 18.3332 20 18.3332H12C11.7348 18.3332 11.4804 18.2278 11.2929 18.0403C11.1054 17.8527 11 17.5984 11 17.3332ZM11 22.6665C11 22.4013 11.1054 22.1469 11.2929 21.9594C11.4804 21.7719 11.7348 21.6665 12 21.6665H16C16.2652 21.6665 16.5196 21.7719 16.7071 21.9594C16.8946 22.1469 17 22.4013 17 22.6665C17 22.9317 16.8946 23.1861 16.7071 23.3736C16.5196 23.5611 16.2652 23.6665 16 23.6665H12C11.7348 23.6665 11.4804 23.5611 11.2929 23.3736C11.1054 23.1861 11 22.9317 11 22.6665Z" fill="#F5F5F5"/>
</svg>
