<svg width="32" height="32" viewBox="0 0 32 32" fill="none" xmlns="http://www.w3.org/2000/svg">
<path d="M16 20C18.2091 20 20 18.2091 20 16C20 13.7909 18.2091 12 16 12C13.7909 12 12 13.7909 12 16C12 18.2091 13.7909 20 16 20Z" stroke="#F5F5F5" stroke-width="2"/>
<path d="M18.3533 2.86917C17.864 2.6665 17.2427 2.6665 16 2.6665C14.7573 2.6665 14.136 2.6665 13.6467 2.86917C13.3229 3.00319 13.0287 3.1997 12.781 3.44747C12.5332 3.69524 12.3367 3.98941 12.2027 4.31317C12.08 4.6105 12.0307 4.9585 12.012 5.46384C12.0037 5.82916 11.9027 6.18637 11.7184 6.50193C11.5342 6.81749 11.2727 7.08104 10.9587 7.26784C10.6399 7.44656 10.2809 7.54131 9.91538 7.54317C9.5499 7.54504 9.18994 7.45396 8.86933 7.2785C8.42133 7.04117 8.09733 6.9105 7.776 6.86784C7.07509 6.77566 6.36626 6.96558 5.80533 7.39584C5.38666 7.71984 5.07466 8.25717 4.45333 9.33317C3.832 10.4092 3.52 10.9465 3.452 11.4732C3.40618 11.8204 3.42922 12.1733 3.51982 12.5117C3.61042 12.8501 3.76679 13.1673 3.98 13.4452C4.17733 13.7012 4.45333 13.9158 4.88133 14.1852C5.512 14.5812 5.91733 15.2558 5.91733 15.9998C5.91733 16.7438 5.512 17.4185 4.88133 17.8132C4.45333 18.0838 4.176 18.2985 3.98 18.5545C3.76679 18.8324 3.61042 19.1496 3.51982 19.488C3.42922 19.8263 3.40618 20.1792 3.452 20.5265C3.52133 21.0518 3.832 21.5905 4.452 22.6665C5.07466 23.7425 5.38533 24.2798 5.80533 24.6038C6.08325 24.817 6.40044 24.9734 6.7388 25.064C7.07717 25.1546 7.43006 25.1777 7.77733 25.1318C8.09733 25.0892 8.42133 24.9585 8.86933 24.7212C9.18994 24.5457 9.5499 24.4546 9.91538 24.4565C10.2809 24.4584 10.6399 24.5531 10.9587 24.7318C11.6027 25.1052 11.9853 25.7918 12.012 26.5358C12.0307 27.0425 12.0787 27.3892 12.2027 27.6865C12.3367 28.0103 12.5332 28.3044 12.781 28.5522C13.0287 28.8 13.3229 28.9965 13.6467 29.1305C14.136 29.3332 14.7573 29.3332 16 29.3332C17.2427 29.3332 17.864 29.3332 18.3533 29.1305C18.6771 28.9965 18.9713 28.8 19.219 28.5522C19.4668 28.3044 19.6633 28.0103 19.7973 27.6865C19.92 27.3892 19.9693 27.0425 19.988 26.5358C20.0147 25.7918 20.3973 25.1038 21.0413 24.7318C21.3601 24.5531 21.7191 24.4584 22.0846 24.4565C22.4501 24.4546 22.8101 24.5457 23.1307 24.7212C23.5787 24.9585 23.9027 25.0892 24.2227 25.1318C24.5699 25.1777 24.9228 25.1546 25.2612 25.064C25.5995 24.9734 25.9167 24.817 26.1947 24.6038C26.6147 24.2812 26.9253 23.7425 27.5467 22.6665C28.168 21.5905 28.48 21.0532 28.548 20.5265C28.5938 20.1792 28.5708 19.8263 28.4802 19.488C28.3896 19.1496 28.2332 18.8324 28.02 18.5545C27.8227 18.2985 27.5467 18.0838 27.1187 17.8145C26.8063 17.6247 26.5474 17.3585 26.3661 17.0411C26.1849 16.7236 26.0874 16.3653 26.0827 15.9998C26.0827 15.2558 26.488 14.5812 27.1187 14.1865C27.5467 13.9158 27.824 13.7012 28.02 13.4452C28.2332 13.1673 28.3896 12.8501 28.4802 12.5117C28.5708 12.1733 28.5938 11.8204 28.548 11.4732C28.4787 10.9478 28.168 10.4092 27.548 9.33317C26.9253 8.25717 26.6147 7.71984 26.1947 7.39584C25.9167 7.18262 25.5995 7.02625 25.2612 6.93566C24.9228 6.84506 24.5699 6.82202 24.2227 6.86784C23.9027 6.9105 23.5787 7.04117 23.1293 7.2785C22.8089 7.45372 22.4492 7.54467 22.084 7.5428C21.7187 7.54094 21.36 7.44632 21.0413 7.26784C20.7273 7.08104 20.4658 6.81749 20.2816 6.50193C20.0973 6.18637 19.9963 5.82916 19.988 5.46384C19.9693 4.95717 19.9213 4.6105 19.7973 4.31317C19.6633 3.98941 19.4668 3.69524 19.219 3.44747C18.9713 3.1997 18.6771 3.00319 18.3533 2.86917Z" stroke="#F5F5F5" stroke-width="2"/>
</svg>
