<svg width="28" height="28" viewBox="0 0 28 28" fill="none" xmlns="http://www.w3.org/2000/svg">
<path d="M2.3 26.5433V27.445C1.87672 27.3507 1.48512 27.1378 1.17365 26.8263C0.862187 26.5149 0.649278 26.1233 0.554997 25.7H1.4567C1.52782 25.8911 1.63955 26.0666 1.78648 26.2135C1.93341 26.3605 2.10895 26.4722 2.3 26.5433ZM10.7381 20.9667H9.86343C9.97471 20.0458 10.3911 19.183 11.0537 18.5204C11.7163 17.8578 12.5792 17.4414 13.5 17.3301V18.2048C12.8099 18.3105 12.1663 18.6335 11.6665 19.1332C11.1668 19.633 10.8439 20.2766 10.7381 20.9667ZM14.5 18.2048V17.3301C15.4208 17.4414 16.2837 17.8578 16.9463 18.5204C17.6089 19.183 18.0253 20.0458 18.1366 20.9667H17.2619C17.1561 20.2766 16.8332 19.633 16.3335 19.1332C15.8337 18.6335 15.1901 18.3105 14.5 18.2048ZM27.445 25.7C27.3507 26.1233 27.1378 26.5149 26.8263 26.8263C26.5149 27.1378 26.1233 27.3507 25.7 27.445V26.5433C25.8911 26.4722 26.0666 26.3605 26.2135 26.2135C26.3604 26.0666 26.4722 25.8911 26.5433 25.7H27.445ZM1.10284 11.4173L13.267 0.990906C13.4453 1.50663 13.3033 2.10136 12.8639 2.47796L2.63195 11.2482C2.19307 11.6244 1.58411 11.6731 1.10284 11.4173ZM1.36667 24.7H0.5V12.7277C1.00747 12.9273 1.36667 13.4217 1.36667 14V24.7ZM3.3 27.5V26.6333H8.4C8.97831 26.6333 9.47273 26.9925 9.67231 27.5H3.3ZM10.7 21.9667V26.4723C10.1925 26.2727 9.83333 25.7783 9.83333 25.2V21.9667H10.7ZM17.3 21.9667H18.1667V25.2C18.1667 25.7783 17.8075 26.2727 17.3 26.4723V21.9667ZM24.7 27.5H18.3277C18.5273 26.9925 19.0217 26.6333 19.6 26.6333H24.7V27.5ZM27.5 24.7H26.6333V14C26.6333 13.4217 26.9925 12.9273 27.5 12.7277V24.7ZM26.8972 11.4173C26.4159 11.6731 25.8069 11.6244 25.368 11.2482L15.1361 2.47796C14.6967 2.10136 14.5547 1.50663 14.733 0.990905L26.8972 11.4173Z" fill="#F5F5F5" stroke="#F5F5F5"/>
</svg>
